<svg width="63" height="70" viewBox="0 0 63 70" fill="none" xmlns="http://www.w3.org/2000/svg">
<path d="M3.10181 51.8672L5.67151 53.3508L34.2991 3.76807L31.7294 2.28442L3.10181 51.8672Z" fill="#E535AB"/>
<path d="M59.7679 47.9065H2.51318V50.8738H59.7679V47.9065Z" fill="#E535AB"/>
<path d="M3.64659 49.5726L32.2846 66.1073L33.7683 63.5376L5.13024 47.0029L3.64659 49.5726ZM28.5246 6.47888L57.1626 23.0136L58.6463 20.4439L30.0082 3.90918L28.5246 6.47888Z" fill="#E535AB"/>
<path d="M3.65405 20.4329L5.13805 23.0026L33.7761 6.46789L32.2925 3.89819L3.65405 20.4329Z" fill="#E535AB"/>
<path d="M28.0072 3.76832L56.6344 53.3511L59.2041 51.8674L30.5769 2.28467L28.0072 3.76867V3.76832ZM7.75099 18.4652H4.78369V51.5346H7.75099V18.4652Z" fill="#E535AB"/>
<path d="M57.5156 18.4653H54.5483V51.5347H57.5156V18.4653Z" fill="#E535AB"/>
<path d="M30.4834 62.607L31.7794 64.8519L56.6868 50.4711L55.3908 48.2266L30.4834 62.607Z" fill="#E535AB"/>
<path d="M61.4485 52.5C59.7324 55.4851 55.9069 56.504 52.9218 54.7879C49.9366 53.0719 48.9178 49.2467 50.6338 46.2616C52.3499 43.2761 56.1754 42.2572 59.1605 43.9733C62.1635 45.7072 63.1824 49.5148 61.4485 52.5ZM11.6477 23.7384C9.93163 26.7235 6.10613 27.7427 3.12098 26.0267C0.135827 24.3106 -0.883023 20.4851 0.833027 17.5C2.54908 14.5145 6.37423 13.496 9.35973 15.212C12.3449 16.9459 13.3637 20.7532 11.6477 23.7384ZM0.850877 52.5C-0.865173 49.5148 0.153676 45.7072 3.13883 43.9733C6.12433 42.2572 9.93163 43.2761 11.6655 46.2616C13.3816 49.2467 12.3627 53.054 9.37758 54.7879C6.37458 56.504 2.56693 55.4851 0.850877 52.5ZM50.6517 23.7384C48.9356 20.7532 49.9545 16.9459 52.9396 15.212C55.9251 13.496 59.7324 14.5148 61.4663 17.5C63.1824 20.4855 62.1635 24.2928 59.1784 26.0267C56.1932 27.7427 52.3677 26.7235 50.6517 23.7384ZM31.1497 70C27.6997 70 24.9113 67.2115 24.9113 63.7616C24.9113 60.3116 27.6997 57.5228 31.1497 57.5228C34.5996 57.5228 37.3881 60.3116 37.3881 63.7616C37.3881 67.1937 34.5996 70 31.1497 70ZM31.1497 12.4771C27.6997 12.4771 24.9113 9.68835 24.9113 6.2384C24.9113 2.78845 27.6997 0 31.1497 0C34.5996 0 37.3881 2.78845 37.3881 6.2384C37.3881 9.68835 34.5996 12.4771 31.1497 12.4771Z" fill="#E535AB"/>
</svg>
