<svg width="48" height="48" viewBox="0 0 48 48" fill="none" xmlns="http://www.w3.org/2000/svg">
<path d="M8 0C5.87827 0 3.84344 0.842855 2.34315 2.34315C0.842855 3.84344 0 5.87827 0 8V40C0 42.1217 0.842855 44.1566 2.34315 45.6569C3.84344 47.1571 5.87827 48 8 48H40C42.1217 48 44.1566 47.1571 45.6569 45.6569C47.1571 44.1566 48 42.1217 48 40V8C48 5.87827 47.1571 3.84344 45.6569 2.34315C44.1566 0.842855 42.1217 0 40 0H8ZM27.5573 34.8133C29.4773 36.36 31.392 37.12 33.3067 37.1013C34.48 37.1013 35.3813 36.888 36.0053 36.456C36.2967 36.2669 36.5338 36.0051 36.6932 35.6965C36.8527 35.3879 36.929 35.0431 36.9147 34.696C36.9185 34.3175 36.8394 33.9427 36.6827 33.598C36.5261 33.2534 36.2957 32.9473 36.008 32.7013C35.3813 32.1547 34.1973 31.608 32.456 31.0587C30.3653 30.4533 28.7493 29.672 27.616 28.712C26.5013 27.752 25.936 26.4133 25.9147 24.6933C25.9147 23.0693 26.6187 21.712 28.0267 20.616C29.3973 19.5227 31.1467 18.9733 33.28 18.9733C36.2507 18.9733 38.6373 19.696 40.4347 21.144L38.3813 24.3413C37.6421 23.7663 36.7939 23.3472 35.888 23.1093C35.0739 22.837 34.2235 22.6887 33.3653 22.6693C32.352 22.6693 31.5387 22.856 30.9307 23.2267C30.3253 23.6 30.024 24.088 30.024 24.6933C30.024 25.36 30.3947 25.9253 31.136 26.3947C31.8827 26.8453 33.152 27.344 34.9493 27.8907C37.12 28.536 38.6667 29.3973 39.584 30.472C40.504 31.5467 40.9627 32.9173 40.9627 34.5787C40.9627 36.28 40.3093 37.7467 38.9973 38.9787C37.7067 40.192 35.8293 40.8267 33.3653 40.8853C30.1387 40.8853 27.44 39.9173 25.2693 37.9813L27.5573 34.8133ZM12.8107 36.5147C13.4373 36.9067 14.1893 37.1013 15.0693 37.1013C15.9893 37.1013 16.7493 36.8373 17.3573 36.3093C17.9627 35.7627 18.2667 34.8133 18.2667 33.464V19.3253H22.2267V34.2267C22.168 36.5333 21.504 38.1973 20.232 39.2133C19.538 39.8035 18.7289 40.243 17.856 40.504C17.0475 40.7503 16.2078 40.8788 15.3627 40.8853C13.896 40.8853 12.5947 40.632 11.4613 40.1227C10.248 39.576 9.232 38.608 8.41067 37.2187L11.168 34.96C11.6747 35.6453 12.224 36.1627 12.8107 36.5147Z" fill="url(#paint0_linear_138_156)"/>
<defs>
<linearGradient id="paint0_linear_138_156" x1="1.36935e-06" y1="36.5" x2="57.5" y2="15" gradientUnits="userSpaceOnUse">
<stop stopColor="#FFC700"/>
<stop offset="1" stopColor="#FF9900"/>
</linearGradient>
</defs>
</svg>
