<svg width="70" height="70" viewBox="0 0 70 70" fill="none" xmlns="http://www.w3.org/2000/svg">
<path d="M53.5938 0H16.4062C7.34533 0 0 7.34533 0 16.4062V53.5938C0 62.6547 7.34533 70 16.4062 70H53.5938C62.6547 70 70 62.6547 70 53.5938V16.4062C70 7.34533 62.6547 0 53.5938 0Z" fill="#764ABC"/>
<path d="M45.549 45.2811C47.5672 45.0721 49.0982 43.3323 49.0285 41.2446C48.959 39.1569 47.2191 37.4867 45.1314 37.4867H44.9923C42.8348 37.5562 41.1647 39.3655 41.2341 41.5229C41.3038 42.5669 41.7214 43.4714 42.3476 44.0979C39.9815 48.7605 36.3628 52.1706 30.9346 55.0239C27.2462 56.9724 23.4186 57.6683 19.591 57.1813C16.4593 56.7638 14.0238 55.3717 12.4926 53.0754C10.2657 49.6654 10.0571 45.977 11.9358 42.2886C13.2582 39.6439 15.3459 37.6954 16.6682 36.7211C16.3899 35.8166 15.9723 34.2853 15.7634 33.1719C5.67276 40.4792 6.71647 50.3612 9.77842 55.0239C12.0753 58.5034 16.7377 60.6608 21.8876 60.6608C23.2794 60.6608 24.6712 60.5216 26.063 60.1736C34.971 58.4339 41.7214 53.1448 45.549 45.2811Z" fill="white"/>
<path d="M57.7971 36.6514C52.5083 30.4574 44.7139 27.0477 35.8062 27.0477H34.6927C34.0663 25.7948 32.7439 24.9597 31.2827 24.9597H31.1435C28.9861 25.0294 27.3159 26.8388 27.3854 28.9962C27.4551 31.0839 29.1947 32.7541 31.2827 32.7541H31.4219C32.9529 32.6846 34.2752 31.7103 34.8319 30.388H36.0845C41.3734 30.388 46.3841 31.919 50.9076 34.9115C54.3871 37.2081 56.8926 40.2006 58.2844 43.8192C59.4675 46.742 59.3978 49.5953 58.1452 52.0311C56.1967 55.7195 52.9258 57.7378 48.611 57.7378C45.8274 57.7378 43.183 56.9027 41.7909 56.2762C41.0255 56.9721 39.6337 58.0856 38.6595 58.7815C41.6517 60.1733 44.7139 60.9389 47.6367 60.9389C54.3176 60.9389 59.2586 57.2505 61.1377 53.5621C63.1559 49.5259 63.0168 42.5666 57.7971 36.6514Z" fill="white"/>
<path d="M22.4442 46.4641C22.5139 48.5518 24.2535 50.222 26.3415 50.222H26.4807C28.6378 50.1523 30.3083 48.3429 30.2385 46.1855C30.1691 44.0978 28.4292 42.4277 26.3415 42.4277H26.202C26.0631 42.4277 25.8542 42.4277 25.7153 42.4974C22.8617 37.765 21.6788 32.6151 22.0964 27.0479C22.3747 22.8725 23.7665 19.2536 26.2023 16.2608C28.2203 13.6861 32.1176 12.4335 34.762 12.3637C42.1388 12.2246 45.2705 21.4107 45.4791 25.0991C46.3839 25.308 47.9149 25.7953 48.9589 26.1431C48.1238 14.8695 41.1645 9.02344 34.4836 9.02344C28.2203 9.02344 22.4442 13.5469 20.1476 20.2278C16.9465 29.1356 19.0342 37.6953 22.9312 44.4459C22.5834 44.9329 22.3745 45.6985 22.4442 46.4641Z" fill="white"/>
</svg>
