<svg width="48" height="48" viewBox="0 0 48 48" fill="none" xmlns="http://www.w3.org/2000/svg">
<path d="M0 4C0 1.79086 1.79086 0 4 0H44C46.2091 0 48 1.79086 48 4V44C48 46.2091 46.2091 48 44 48H4C1.79086 48 0 46.2091 0 44V4Z" fill="#F03E2F"/>
<path d="M14.7837 12.4361C14.7837 16.5604 17.376 19.0148 22.5664 20.3085L28.0662 21.5614C32.9783 22.6699 35.9693 25.4228 35.9693 29.9081C36.0058 31.8673 35.3581 33.7779 34.1378 35.3111C34.1378 30.8363 31.7817 28.4186 26.0982 26.9644L20.6982 25.758C16.3737 24.7886 13.0362 22.5255 13.0362 17.6535C13.015 15.7673 13.6307 13.9291 14.7837 12.4361Z" fill="white"/>
<path d="M30.7583 28.8101C33.1043 30.2846 34.1325 32.3468 34.1325 35.3063C32.1911 37.7498 28.7798 39.1211 24.7706 39.1211C18.0218 39.1211 13.2986 35.8579 12.249 30.1868H18.7301C19.5645 32.7904 21.774 33.9968 24.723 33.9968C28.323 33.9968 30.7163 32.1098 30.7635 28.7996M18.1526 18.5505C17.0857 17.9292 16.2069 17.0305 15.6098 15.9499C15.0173 14.8766 14.7315 13.661 14.7836 12.4361C16.6571 10.0129 19.9159 8.53351 23.8886 8.53351C30.7635 8.53351 34.7411 12.1009 35.7229 17.1225H29.4881C28.8008 15.1425 27.0795 13.6013 23.9411 13.6013C20.5879 13.6013 18.2996 15.519 18.1684 18.5505" fill="#F9B1AB"/>
</svg>
