<svg width="70" height="70" viewBox="0 0 70 70" fill="none" xmlns="http://www.w3.org/2000/svg">
<path d="M11.7347 39.1211C11.7347 39.8537 11.8598 40.4791 12.11 40.9972C12.3601 41.5154 12.7086 41.9442 13.1553 42.2837C13.602 42.6054 14.1112 42.8466 14.683 43.0074C15.2726 43.1503 15.9069 43.2218 16.5859 43.2218C17.3185 43.2218 17.9439 43.1414 18.4621 42.9806C18.9803 42.8019 19.4002 42.5786 19.7218 42.3105C20.0434 42.0425 20.2757 41.7388 20.4186 41.3993C20.5616 41.0419 20.6331 40.6845 20.6331 40.3272C20.6331 39.5946 20.4633 39.0585 20.1238 38.7191C19.8022 38.3617 19.4448 38.1115 19.0517 37.9686C18.3727 37.7184 17.5776 37.4862 16.6663 37.2717C15.7729 37.0395 14.6651 36.7446 13.3429 36.3873C12.5209 36.1728 11.833 35.8959 11.2791 35.5564C10.7431 35.199 10.3142 34.8059 9.9926 34.3771C9.67098 33.9483 9.43869 33.4926 9.29574 33.0102C9.17067 32.5278 9.10813 32.0364 9.10813 31.5361C9.10813 30.5712 9.30468 29.7403 9.69778 29.0435C10.1087 28.3287 10.6448 27.7391 11.3059 27.2745C11.967 26.81 12.7175 26.4705 13.5573 26.256C14.3971 26.0238 15.2458 25.9076 16.1035 25.9076C17.1041 25.9076 18.0422 26.0416 18.9177 26.3097C19.8111 26.5598 20.5884 26.944 21.2495 27.4621C21.9285 27.9803 22.4645 28.6236 22.8576 29.3919C23.2507 30.1424 23.4473 31.0179 23.4473 32.0185H20.097C20.0077 30.7856 19.5878 29.919 18.8373 29.4187C18.0869 28.9005 17.1309 28.6414 15.9695 28.6414C15.5764 28.6414 15.1744 28.6861 14.7634 28.7755C14.3524 28.8469 13.9772 28.9809 13.6377 29.1775C13.2982 29.3562 13.0123 29.6063 12.78 29.9279C12.5656 30.2496 12.4584 30.6516 12.4584 31.134C12.4584 31.813 12.6639 32.3491 13.0748 32.7422C13.5037 33.1174 14.0576 33.4033 14.7366 33.5998C14.8081 33.6177 15.085 33.6981 15.5675 33.8411C16.0678 33.9661 16.6217 34.1091 17.2292 34.2699C17.8367 34.4307 18.4263 34.5915 18.9981 34.7523C19.5878 34.8953 20.0077 35.0025 20.2578 35.074C20.8832 35.2705 21.4282 35.5385 21.8928 35.878C22.3573 36.2175 22.7415 36.6106 23.0453 37.0573C23.3669 37.4862 23.5992 37.9507 23.7421 38.451C23.9029 38.9513 23.9833 39.4516 23.9833 39.952C23.9833 41.024 23.76 41.9442 23.3133 42.7126C22.8844 43.463 22.3127 44.0795 21.5979 44.5619C20.8832 45.0444 20.0702 45.3928 19.1589 45.6072C18.2477 45.8395 17.3185 45.9556 16.3715 45.9556C15.2816 45.9556 14.2541 45.8216 13.2893 45.5536C12.3244 45.2856 11.4846 44.8746 10.7699 44.3207C10.0551 43.7668 9.48336 43.061 9.05453 42.2033C8.62569 41.3278 8.40234 40.3004 8.38447 39.1211H11.7347ZM26.9165 26.3633H40.6928V29.2579H30.2668V34.2699H39.9155V37.0037H30.2668V42.6054H40.8804V45.5H26.9165V26.3633ZM51.9466 28.6414C50.9281 28.6414 50.0436 28.8469 49.2932 29.2579C48.5606 29.6689 47.962 30.2228 47.4974 30.9196C47.0328 31.5986 46.6844 32.3759 46.4521 33.2514C46.2377 34.1269 46.1305 35.0204 46.1305 35.9316C46.1305 36.8429 46.2377 37.7363 46.4521 38.6118C46.6844 39.4874 47.0328 40.2736 47.4974 40.9704C47.962 41.6494 48.5606 42.1944 49.2932 42.6054C50.0436 43.0163 50.9281 43.2218 51.9466 43.2218C52.9651 43.2218 53.8406 43.0163 54.5732 42.6054C55.3236 42.1944 55.9312 41.6494 56.3957 40.9704C56.8603 40.2736 57.1998 39.4874 57.4142 38.6118C57.6465 37.7363 57.7626 36.8429 57.7626 35.9316C57.7626 35.0204 57.6465 34.1269 57.4142 33.2514C57.1998 32.3759 56.8603 31.5986 56.3957 30.9196C55.9312 30.2228 55.3236 29.6689 54.5732 29.2579C53.8406 28.8469 52.9651 28.6414 51.9466 28.6414ZM51.9466 25.9076C53.376 25.9076 54.6536 26.1756 55.7793 26.7117C56.9228 27.2477 57.8877 27.9714 58.6739 28.8827C59.4601 29.7939 60.0587 30.8571 60.4697 32.0721C60.8985 33.2871 61.1129 34.5737 61.1129 35.9316C61.1129 37.3075 60.8985 38.6029 60.4697 39.8179C60.0587 41.033 59.4601 42.0961 58.6739 43.0074C57.8877 43.9187 56.9228 44.6423 55.7793 45.1784C54.6536 45.6965 53.376 45.9556 51.9466 45.9556C50.5171 45.9556 49.2306 45.6965 48.0871 45.1784C46.9614 44.6423 46.0054 43.9187 45.2192 43.0074C44.433 42.0961 43.8255 41.033 43.3967 39.8179C42.9857 38.6029 42.7802 37.3075 42.7802 35.9316C42.7802 34.5737 42.9857 33.2871 43.3967 32.0721C43.8255 30.8571 44.433 29.7939 45.2192 28.8827C46.0054 27.9714 46.9614 27.2477 48.0871 26.7117C49.2306 26.1756 50.5171 25.9076 51.9466 25.9076Z" fill="white"/>
<rect x="1.2973" y="1.2973" width="67.4054" height="67.4054" rx="11.6757" stroke="white" stroke-width="2.59459"/>
</svg>
