<svg width="90" height="14" viewBox="0 0 90 14" fill="none" xmlns="http://www.w3.org/2000/svg">
<path d="M7 11.2052L10.3949 13.2585C11.0166 13.6348 11.7774 13.0785 11.6138 12.375L10.7139 8.51383L13.7162 5.91244C14.2643 5.43797 13.9698 4.53812 13.2499 4.48086L9.29871 4.14546L7.7526 0.496964C7.47447 -0.165655 6.52553 -0.165655 6.2474 0.496964L4.70129 4.13728L0.750115 4.47268C0.030233 4.52994 -0.264264 5.42979 0.283828 5.90426L3.28606 8.50565L2.38621 12.3668C2.2226 13.0704 2.98339 13.6266 3.6051 13.2503L7 11.2052Z" fill="#4EFFF4"/>
<path d="M26 11.2052L29.3949 13.2585C30.0166 13.6348 30.7774 13.0785 30.6138 12.375L29.7139 8.51383L32.7162 5.91244C33.2643 5.43797 32.9698 4.53812 32.2499 4.48086L28.2987 4.14546L26.7526 0.496964C26.4745 -0.165655 25.5255 -0.165655 25.2474 0.496964L23.7013 4.13728L19.7501 4.47268C19.0302 4.52994 18.7357 5.42979 19.2838 5.90426L22.2861 8.50565L21.3862 12.3668C21.2226 13.0704 21.9834 13.6266 22.6051 13.2503L26 11.2052Z" fill="#4EFFF4"/>
<path d="M51.2558 4.48009L47.2971 4.13657L45.7513 0.496879C45.4732 -0.165626 44.5244 -0.165626 44.2463 0.496879L42.7005 4.14475L38.75 4.48009C38.0302 4.53734 37.7358 5.43704 38.2838 5.91143L41.2855 8.51238L40.3858 12.3729C40.2222 13.0763 40.9829 13.6325 41.6045 13.2562L44.9988 11.2115L48.3931 13.2644C49.0147 13.6407 49.7754 13.0845 49.6118 12.3811L48.7121 8.51238L51.7138 5.91143C52.2618 5.43704 51.9756 4.53734 51.2558 4.48009ZM44.9988 9.68198V2.07544L46.3974 5.37979L49.9799 5.69059L47.2644 8.04617L48.0823 11.5468L44.9988 9.68198Z" fill="#4EFFF4"/>
<path d="M70.2558 4.48009L66.2971 4.13657L64.7513 0.496879C64.4732 -0.165626 63.5244 -0.165626 63.2463 0.496879L61.7005 4.14475L57.75 4.48009C57.0302 4.53734 56.7358 5.43704 57.2838 5.91143L60.2855 8.51238L59.3858 12.3729C59.2222 13.0763 59.9829 13.6325 60.6045 13.2562L63.9988 11.2115L67.3931 13.2644C68.0147 13.6407 68.7754 13.0845 68.6118 12.3811L67.7121 8.51238L70.7138 5.91143C71.2618 5.43704 70.9756 4.53734 70.2558 4.48009ZM63.9988 9.68198L60.9235 11.5386L61.7414 8.03799L59.0259 5.68242L62.6084 5.37161L63.9988 2.07544L65.3974 5.37979L68.9799 5.69059L66.2644 8.04617L67.0823 11.5468L63.9988 9.68198Z" fill="#4EFFF4"/>
<path d="M89.2558 4.48009L85.2971 4.13657L83.7513 0.496879C83.4732 -0.165626 82.5244 -0.165626 82.2463 0.496879L80.7005 4.14475L76.75 4.48009C76.0302 4.53734 75.7358 5.43704 76.2838 5.91143L79.2855 8.51238L78.3858 12.3729C78.2222 13.0763 78.9829 13.6325 79.6045 13.2562L82.9988 11.2115L86.3931 13.2644C87.0147 13.6407 87.7754 13.0845 87.6118 12.3811L86.7121 8.51238L89.7138 5.91143C90.2618 5.43704 89.9756 4.53734 89.2558 4.48009ZM82.9988 9.68198L79.9235 11.5386L80.7414 8.03799L78.0259 5.68242L81.6084 5.37161L82.9988 2.07544L84.3974 5.37979L87.9799 5.69059L85.2644 8.04617L86.0823 11.5468L82.9988 9.68198Z" fill="#4EFFF4"/>
</svg>
