<svg width="70" height="70" viewBox="0 0 70 70" fill="none" xmlns="http://www.w3.org/2000/svg">
<path d="M59 70H11C8.08262 70 5.28472 68.8411 3.22182 66.7782C1.15892 64.7153 0 61.9174 0 59V11C0 8.08262 1.15892 5.28472 3.22182 3.22182C5.28472 1.15892 8.08262 0 11 0H35C35.7956 0 36.5587 0.31607 37.1213 0.878679C37.6839 1.44129 38 2.20435 38 3C38 3.79565 37.6839 4.55871 37.1213 5.12132C36.5587 5.68393 35.7956 6 35 6H11C9.67392 6 8.40215 6.52678 7.46447 7.46447C6.52678 8.40215 6 9.67392 6 11V59C6 60.3261 6.52678 61.5979 7.46447 62.5355C8.40215 63.4732 9.67392 64 11 64H59C60.3261 64 61.5979 63.4732 62.5355 62.5355C63.4732 61.5979 64 60.3261 64 59V35C64 34.2044 64.3161 33.4413 64.8787 32.8787C65.4413 32.3161 66.2044 32 67 32C67.7956 32 68.5587 32.3161 69.1213 32.8787C69.6839 33.4413 70 34.2044 70 35V59C70 61.9174 68.8411 64.7153 66.7782 66.7782C64.7153 68.8411 61.9174 70 59 70ZM67 22C66.2076 21.9896 65.4505 21.6702 64.8901 21.1099C64.3298 20.5495 64.0104 19.7924 64 19V6H51C50.2044 6 49.4413 5.68393 48.8787 5.12132C48.3161 4.55871 48 3.79565 48 3C48 2.20435 48.3161 1.44129 48.8787 0.878679C49.4413 0.31607 50.2044 0 51 0H67C67.7924 0.0103599 68.5495 0.329757 69.1099 0.890136C69.6702 1.45051 69.9896 2.20757 70 3V19C69.9896 19.7924 69.6702 20.5495 69.1099 21.1099C68.5495 21.6702 67.7924 21.9896 67 22Z" fill="white"/>
<path d="M40.8864 32.0017C40.1167 31.9427 39.4008 31.5837 38.8919 31.0017C38.4013 30.4517 38.1301 29.7396 38.1301 29.0017C38.1301 28.2638 38.4013 27.5517 38.8919 27.0017L64.8197 1.00171C65.0936 0.706961 65.4238 0.470553 65.7908 0.306585C66.1578 0.142617 66.5539 0.054449 66.9556 0.0473419C67.3573 0.0402347 67.7563 0.114333 68.1288 0.265217C68.5014 0.416101 68.8398 0.64068 69.1238 0.925555C69.4079 1.21043 69.6319 1.54977 69.7823 1.92332C69.9328 2.29687 70.0067 2.69699 69.9996 3.0998C69.9925 3.50261 69.9046 3.89986 69.7411 4.26786C69.5776 4.63586 69.3418 4.96706 69.0479 5.24171L42.8808 31.0017C42.372 31.5837 41.656 31.9427 40.8864 32.0017Z" fill="white"/>
</svg>
