<svg width="1006" height="852" viewBox="0 0 1006 852" fill="none" xmlns="http://www.w3.org/2000/svg">
<g filter="url(#filter0_d_412_285)">
<g filter="url(#filter1_i_412_285)">
<path d="M971.322 123.624C973.269 131.215 974.303 139.163 974.303 147.363C974.303 200.146 931.485 242.939 878.655 242.939C862.702 242.939 847.672 239.039 834.455 232.131C836.462 238.408 837.54 245.078 837.54 252.016C837.54 286.779 810.363 315.198 776.079 317.196C776.087 317.382 776.087 317.568 776.087 317.753C776.087 353.341 747.222 382.191 711.601 382.191C707.445 382.191 703.379 381.797 699.439 381.047C695.284 417.704 664.145 446.19 626.345 446.19C617.499 446.19 609.003 444.623 601.153 441.763C599.101 453.581 593.86 464.3 586.338 473.005C587.594 477.841 588.255 482.914 588.255 488.143C588.255 521.339 561.324 548.25 528.103 548.25C521.591 548.25 515.317 547.211 509.445 545.302C506.39 544.306 503.446 543.081 500.636 541.632C503 543.497 505.052 545.458 507.014 547.619C515.548 557.045 520.744 569.561 520.744 583.281C520.744 612.666 496.912 636.472 467.512 636.472C457.603 636.472 448.311 633.769 440.365 629.044C433.414 637.512 423.186 643.187 411.604 644.116C413.322 647.399 414.28 651.113 414.28 655.072C414.28 668.205 403.621 678.856 390.478 678.856C384.844 678.856 379.662 676.903 375.589 673.627C369.062 679.057 360.677 682.31 351.526 682.31C335.611 682.31 322 672.446 316.485 658.496C312.247 680.921 292.534 697.879 268.865 697.879C260.369 697.879 252.392 695.703 245.449 691.863C239.636 708.947 224.769 721.849 206.572 724.88C207.115 727.324 207.412 729.864 207.412 732.479C207.412 751.583 191.906 767.078 172.786 767.078C169.746 767.078 166.795 766.685 163.985 765.942C158.529 771.892 149.958 775.724 140.324 775.724C137.313 775.724 134.407 775.353 131.664 774.655C124.253 786.131 112.307 794.658 97.8041 797.347C93.4109 798.164 89.0399 798.394 84.7954 798.097C82.0895 801.596 78.7667 804.567 74.9756 806.862C77.7037 810.636 79.302 815.263 79.302 820.27C79.302 832.927 69.0362 843.185 56.3694 843.185C55.7153 843.185 55.076 843.163 54.4441 843.103C51.1882 851.69 42.9147 857.803 33.199 857.885C31.9799 864.771 25.9587 870 18.711 870C18.1535 870 17.6108 869.97 17.0682 869.911C16.8824 869.889 16.6965 869.866 16.5107 869.837C9.43393 868.774 4 862.676 4 855.3C4 849.855 6.95856 845.101 11.3592 842.569C10.5118 840.199 10.0584 837.636 10.0584 834.97C10.0584 825.893 15.3362 818.049 23.0002 814.335C21.3648 811.193 20.443 807.62 20.443 803.832C20.443 799.353 21.729 795.178 23.9517 791.65C21.6993 786.963 20.443 781.704 20.443 776.155C20.443 763.505 26.9994 752.378 36.8935 745.998C36.9678 740.107 38.0606 734.38 40.0305 729.025C38.0011 723.491 36.8935 717.526 36.8935 711.287C36.8935 685.177 56.3471 663.607 81.5692 660.279C82.1118 657.479 83.041 654.827 84.3122 652.376C77.9044 643.848 74.1133 633.256 74.1133 621.772C74.1133 604.354 82.8552 588.963 96.191 579.752C93.6785 574.085 92.2884 567.823 92.2884 561.227C92.2884 540.288 106.338 522.624 125.531 517.142C125.301 515.293 125.182 513.406 125.182 511.489C125.182 504.477 126.795 497.844 129.687 491.946C118.038 483.538 110.463 469.856 110.463 454.406C110.463 445.031 113.251 436.311 118.046 429.032C112.708 420.928 109.601 411.212 109.601 400.783C109.601 381.359 120.372 364.438 136.288 355.681C132.482 347.272 130.371 337.95 130.371 328.13C130.371 311.254 136.622 295.826 146.925 284.045C140.822 273.943 137.299 262.096 137.299 249.424C137.299 224.31 151.132 202.412 171.59 190.936C164.684 180.403 160.67 167.813 160.67 154.286C160.67 150.045 161.056 145.9 161.822 141.881C121.584 136.526 90.5564 102.105 90.5564 60.4413C90.5564 36.5307 100.77 15.0119 117.087 0H891.21V0.482818C891.485 0.319402 891.768 0.155987 892.043 0H964.832C987.029 12.6572 1002 36.5381 1002 63.9028C1002 88.5042 989.898 110.283 971.322 123.624Z" fill="#824800"/>
</g>
<g filter="url(#filter2_i_412_285)">
<path d="M972.823 48.9874C972.823 30.4844 966.453 13.4669 955.778 0H144.227C138.904 7.80679 135.79 17.2477 135.79 27.4092C135.79 35.3868 137.707 42.9113 141.097 49.5594C134.489 58.7626 130.601 70.0382 130.601 82.2201C130.601 107.527 147.371 128.927 170.415 135.909C169.233 140.99 168.609 146.271 168.609 151.709C168.609 173.51 178.659 192.964 194.381 205.695C193.362 208.362 192.797 211.266 192.797 214.289C192.797 216.636 193.139 218.902 193.764 221.049C172.541 228.759 157.384 249.097 157.384 272.985C157.384 286.808 162.461 299.458 170.861 309.137C157.518 318.132 148.746 333.374 148.746 350.667C148.746 358.778 150.671 366.444 154.098 373.218C144.07 380.245 137.514 391.884 137.514 405.047C137.514 415.164 141.394 424.382 147.735 431.297C140.443 437.232 135.79 446.272 135.79 456.404C135.79 466.535 140.101 474.892 146.925 480.834C143.193 485.655 140.971 491.701 140.971 498.268C140.971 504.834 143.007 510.375 146.472 515.099C143.007 519.824 140.971 525.632 140.971 531.931C140.971 534.382 141.283 536.759 141.863 539.025C125.093 546.096 113.325 562.676 113.325 581.996C113.325 582.575 113.34 583.154 113.362 583.719H113.325C100.926 583.719 90.8685 593.769 90.8685 606.166C90.8685 611.737 92.9053 616.848 96.295 620.77C94.4589 625.182 93.4628 630.01 93.4628 635.076C93.4628 641.107 94.8826 646.797 97.4175 651.848C94.9198 655.414 93.4628 659.752 93.4628 664.424C93.4628 667.662 94.1616 670.73 95.4178 673.501C95.1948 673.486 94.9793 673.486 94.7563 673.486C78.9971 673.486 65.862 684.739 62.9704 699.632C55.2097 706.043 50.2664 715.736 50.2664 726.573C50.2664 730.815 51.0246 734.878 52.4147 738.629C48.4526 742.113 45.9475 747.216 45.9475 752.898C45.9475 754.257 46.0887 755.565 46.3638 756.842C37.7186 758.803 31.2662 766.528 31.2662 775.776C31.2662 781.162 33.4591 786.034 37.0049 789.548C37.0198 789.57 37.0347 789.585 37.057 789.592C37.0421 789.607 37.0347 789.622 37.0347 789.637C36.1055 791.88 35.5851 794.339 35.5851 796.924C35.5851 799.189 35.9791 801.373 36.715 803.393C32.9685 805.332 30.4039 809.239 30.4039 813.755C30.4039 815.263 30.6864 816.704 31.2142 818.027C25.7803 819.393 21.7661 824.303 21.7661 830.156C21.7661 832.147 22.227 834.026 23.0596 835.705C22.227 837.265 21.7661 839.055 21.7661 840.942C17.9453 840.942 14.8529 844.032 14.8529 847.85C14.8529 848.518 14.9496 849.179 15.128 849.789C11.5004 850.643 8.80945 853.889 8.80945 857.774C8.80945 862.305 12.4742 865.974 17.0161 865.974C17.1573 865.974 17.2986 865.974 17.4398 865.974C21.7736 865.751 25.2227 862.171 25.2227 857.781C25.2227 856.511 24.9328 855.315 24.4125 854.238C25.9364 853.606 27.1852 852.44 27.9286 850.97C29.4524 851.742 31.1696 852.173 32.9908 852.173C39.1978 852.173 44.2229 847.152 44.2229 840.949C44.2229 840.556 44.2081 840.154 44.1635 839.768C45.0109 839.976 45.8955 840.088 46.8172 840.088C51.2997 840.088 55.1651 837.465 56.964 833.677C58.0122 833.915 59.09 834.049 60.2051 834.049C68.0698 834.049 74.4552 827.668 74.4552 819.802C74.4552 815.419 72.4704 811.497 69.3632 808.883C69.9951 808.095 70.5749 807.256 71.0804 806.372C71.9278 804.901 72.5819 803.304 73.0131 801.618C75.0796 800.266 76.9157 798.61 78.4768 796.716C84.1709 795.839 88.9804 792.244 91.5078 787.297C92.4296 787.394 93.3736 787.438 94.3251 787.438C110.263 787.438 123.227 774.751 123.688 758.945C127.375 760.608 131.471 761.537 135.79 761.537C140.725 761.537 145.386 760.326 149.467 758.172C152.047 759.234 154.857 759.814 157.815 759.814C169.976 759.814 179.841 749.957 179.841 737.805C179.841 736.49 179.729 735.205 179.499 733.949C187.245 729.359 192.783 721.463 194.18 712.2C195.288 712.297 196.418 712.341 197.548 712.341C217.351 712.341 233.935 698.622 238.313 680.186C245.576 685.735 254.66 689.033 264.494 689.033C286.906 689.033 305.327 671.978 307.468 650.147C310.396 650.036 313.266 649.664 316.038 649.055C319.651 651.068 323.569 652.584 327.724 653.49C333.478 663.391 344.212 670.047 356.492 670.047C363.271 670.047 369.575 668.019 374.838 664.528C382.413 663.495 389.712 660.063 395.533 654.247C402.625 647.161 406.17 637.884 406.163 628.599C406.445 628.614 406.728 628.614 407.025 628.614C418.376 628.614 428.635 623.964 436.016 616.461C442.632 621.379 450.839 624.298 459.714 624.298C481.666 624.298 499.454 606.523 499.454 584.588C499.454 572.844 494.355 562.297 486.245 555.04C487.531 551.459 488.222 547.604 488.222 543.593C488.222 536.826 486.252 530.52 482.862 525.224C489.984 529.487 498.324 531.939 507.23 531.939C517.533 531.939 527.077 528.655 534.86 523.084C538.005 525.395 541.892 526.761 546.1 526.761C556.596 526.761 565.1 518.256 565.1 507.768C565.1 500.236 560.707 493.714 554.336 490.654C554.596 488.626 554.738 486.561 554.738 484.466C554.738 481.636 554.485 478.866 554.009 476.169C571.5 470.331 584.108 453.841 584.108 434.402C584.108 432.122 583.937 429.886 583.595 427.702C591.608 426.031 598.469 421.269 602.922 414.748C610.876 420.073 620.45 423.178 630.753 423.178C658.421 423.178 680.855 400.761 680.855 373.114C680.855 371.628 680.796 370.165 680.655 368.717C687.055 371.547 694.139 373.114 701.587 373.114C730.214 373.114 753.414 349.931 753.414 321.326C753.414 311.625 750.746 302.556 746.1 294.793C748.174 292.186 749.995 289.379 751.556 286.415C755.213 287.232 759.012 287.663 762.914 287.663C791.541 287.663 814.741 264.48 814.741 235.875C814.741 227.578 812.793 219.749 809.322 212.804C818.971 210.731 827.832 206.542 835.399 200.748C845.464 209.201 858.443 214.297 872.619 214.297C904.583 214.297 930.496 188.403 930.496 156.463C930.496 144.199 926.676 132.819 920.156 123.46C950.842 112.623 972.823 83.3714 972.823 48.9948V48.9874ZM846.705 189.755V190.119H846.416C846.505 190 846.609 189.874 846.705 189.755Z" fill="#E78101"/>
</g>
<g filter="url(#filter3_i_412_285)">
<path d="M953.31 0H195.124C180.406 3.19402 169.382 16.2747 169.382 31.9402C169.382 40.1184 172.385 47.5984 177.358 53.3253C163.45 59.6317 153.771 73.626 153.771 89.8783C153.771 112.029 171.746 129.989 193.913 129.989C194.217 129.989 194.515 129.989 194.812 129.974C194.225 131.854 193.913 133.859 193.913 135.932C193.913 140.106 195.184 143.976 197.369 147.178C191.519 153.64 187.966 162.197 187.966 171.586C187.966 191.686 204.275 207.983 224.39 207.983C227.237 207.983 230.003 207.656 232.664 207.047C221.394 214.653 213.983 227.533 213.983 242.152C213.983 245.152 214.295 248.079 214.89 250.902C198.99 258.27 187.966 274.367 187.966 293.033C187.966 311.7 198.945 327.722 214.786 335.12C194.812 345.296 180.413 364.847 177.403 387.97C168.222 392.731 161.948 402.313 161.948 413.366C161.948 423.045 166.765 431.609 174.132 436.779C166.594 444.415 161.948 454.903 161.948 466.476C161.948 479.675 167.992 491.464 177.47 499.218C168.059 506.193 161.948 517.372 161.948 529.985C161.948 538.557 164.766 546.468 169.531 552.848C153.541 554.408 140.071 564.547 133.783 578.601C129.248 581.676 126.267 586.868 126.267 592.751C126.267 593.331 126.297 593.895 126.356 594.46C125.36 594.311 124.334 594.237 123.294 594.237C111.801 594.237 102.48 603.552 102.48 615.035C102.48 623.117 107.096 630.121 113.831 633.561C112.262 637.223 111.4 641.256 111.4 645.49C111.4 649.397 112.136 653.126 113.474 656.558C107.691 661.044 103.967 668.056 103.967 675.944C103.967 680.164 105.03 684.123 106.903 687.584C92.6749 689.983 81.309 700.806 78.1126 714.733C70.4783 718.982 65.312 727.131 65.312 736.482C65.312 738.324 65.5127 740.122 65.8993 741.853C57.3358 743.858 50.8909 751.353 50.4746 760.415C42.3498 762.398 36.3211 769.715 36.3211 778.45C36.3211 782.417 37.5625 786.094 39.6811 789.109C40.3873 790.112 41.1901 791.041 42.0747 791.887C41.7179 792.913 41.5246 794.012 41.5246 795.163C41.5246 796.01 41.6287 796.835 41.8294 797.622C40.7144 800.355 40.4914 803.379 41.1604 806.223C37.5179 807.204 34.8344 810.524 34.8344 814.476C34.8344 816.266 35.3845 817.923 36.3286 819.297C36.3211 819.423 36.3211 819.549 36.3211 819.676C36.3211 820.678 36.507 821.629 36.8564 822.506C36.2096 822.357 35.5332 822.275 34.8344 822.275C29.906 822.275 25.9142 826.264 25.9142 831.189C25.9142 833.083 26.5014 834.843 27.5198 836.284C25.2526 837.354 23.6841 839.657 23.6841 842.331V842.398C21.573 842.747 19.9673 844.581 19.9673 846.788V846.81C18.1535 846.973 16.6817 848.31 16.3323 850.063V850.078C16.2803 850.331 16.2505 850.598 16.2505 850.873C16.2505 851.586 16.4364 852.255 16.7634 852.841C14.7712 853.28 13.2771 855.062 13.2771 857.187C13.2771 859.645 15.2767 861.644 17.7372 861.644C20.1977 861.644 22.1974 859.645 22.1974 857.187C22.1974 856.303 21.9446 855.478 21.4912 854.788C23.0745 854.334 24.2565 852.938 24.4051 851.244H24.4274C26.1966 851.244 27.7205 850.212 28.4416 848.726C29.0585 848.919 29.7053 849.016 30.3743 849.016C32.3665 849.016 34.1505 848.147 35.3771 846.765C35.5629 846.78 35.7562 846.788 35.9495 846.788C39.8521 846.788 43.0039 843.638 43.0113 839.738C43.0113 838.914 42.8701 838.127 42.6099 837.391C43.4276 837.703 44.3122 837.874 45.2414 837.874C48.423 837.874 51.1436 835.868 52.1992 833.061C53.5521 832.674 54.7638 831.976 55.7599 831.048C57.0979 831.62 58.5698 831.932 60.1085 831.932C66.2635 831.932 71.2589 826.94 71.2589 820.79C71.2589 816.883 69.2444 813.444 66.1892 811.453C66.9028 810.517 67.4752 809.507 67.9212 808.459C69.6309 804.404 69.3633 799.709 67.1109 795.854C67.9063 795.282 68.6125 794.591 69.2072 793.811C70.6344 794.443 72.2029 794.792 73.8606 794.792C80.2237 794.792 85.3826 789.637 85.3826 783.279C85.3826 781.644 85.0407 780.092 84.4237 778.681C85.9253 779.483 87.6499 779.936 89.4711 779.936C90.3854 779.936 91.27 779.825 92.1174 779.602C94.459 780.768 97.0905 781.422 99.8781 781.422C109.527 781.422 117.347 773.607 117.347 763.966C117.347 761.953 117.005 760.022 116.373 758.224C117.525 758.113 118.655 757.949 119.77 757.734C120.878 757.518 121.971 757.251 123.048 756.932C129.464 755.03 135.128 751.368 139.469 746.51C142.591 750.573 147.505 753.195 153.028 753.195C162.469 753.195 170.125 745.544 170.125 736.111C170.125 735.398 170.081 734.692 169.991 734.009C180.785 727.242 187.966 715.246 187.966 701.571C187.966 700.405 187.914 699.253 187.81 698.117C188.843 698.191 189.884 698.228 190.939 698.228C211.433 698.228 228.464 683.432 231.928 663.948C238.588 672.602 249.047 678.173 260.815 678.173C280.93 678.173 297.239 661.876 297.239 641.776C297.239 640.394 297.165 639.035 297.016 637.698C300.198 639.354 303.81 640.29 307.646 640.29C311.779 640.29 315.667 639.198 319.019 637.297C322.87 638.864 327.018 639.859 331.359 640.179C336.711 647.674 344.888 653.007 354.344 654.626C356.321 654.968 358.35 655.146 360.424 655.146C380.131 655.146 396.105 639.183 396.105 619.492C396.105 617.977 396.009 616.484 395.823 615.02C403.398 608.937 409.166 600.707 412.229 591.258C414.704 591.756 417.269 592.009 419.893 592.009C425.75 592.009 431.311 590.731 436.306 588.443C437.139 600.395 447.114 609.836 459.291 609.836C471.467 609.836 482.335 599.526 482.335 586.809C482.335 577.249 476.507 569.049 468.203 565.572C474.857 561.91 479.361 554.832 479.361 546.698C479.361 535.809 471.281 526.813 460.785 525.365C467.557 521.072 473.935 516.221 479.867 510.873H479.874C487.263 510.308 494.273 508.407 500.658 505.406C504.152 508.89 508.969 511.044 514.299 511.044C521.153 511.044 527.181 507.478 530.608 502.093C537.194 499.233 541.803 492.682 541.803 485.046C541.803 481.154 540.606 477.544 538.555 474.558C550.813 470.48 559.644 458.922 559.644 445.306C559.644 437.106 556.44 429.648 551.207 424.129C551.415 424.137 551.623 424.137 551.838 424.137C567.642 424.137 580.458 411.331 580.458 395.539C580.458 389.351 578.495 383.624 575.15 378.945C582.68 375.862 589.623 371.628 595.756 366.466C598.179 380.653 610.541 391.454 625.431 391.454C642.06 391.454 655.537 377.987 655.537 361.37C655.537 357.619 654.853 354.031 653.589 350.719C657.938 351.617 662.442 352.085 667.059 352.085C703.803 352.085 733.589 322.322 733.589 285.605C733.589 280.985 733.121 276.476 732.221 272.123C760.499 263.886 781.164 237.784 781.164 206.869C781.164 204.588 781.052 202.338 780.829 200.117C784.658 196.41 788.04 192.25 790.894 187.727C792.716 187.861 794.552 187.927 796.403 187.927C809.077 187.927 820.993 184.674 831.355 178.954C838.989 191.463 852.771 199.812 868.508 199.812C892.526 199.812 911.994 180.358 911.994 156.359C911.994 140.96 903.981 127.427 891.887 119.716C894.57 115.587 896.54 110.959 897.625 106.004C917.384 93.1986 930.764 71.4124 931.976 46.4248C945.044 37.5409 953.622 22.5587 953.622 5.57097C953.622 3.68427 953.518 1.82728 953.31 0ZM82.7065 760.787C82.7288 760.608 82.766 760.423 82.8106 760.244C82.9593 760.289 83.1005 760.334 83.2492 760.378C83.0634 760.504 82.8775 760.638 82.7065 760.787Z" fill="#FEC57D"/>
</g>
<g filter="url(#filter4_i_412_285)">
<path d="M931.322 15.9701C931.322 25.4036 927.181 33.8715 920.61 39.6579C917.711 69.2509 894.355 92.857 864.858 96.1624H864.851C866.969 101.711 868.136 107.728 868.136 114.019C868.136 116.173 867.988 118.29 867.72 120.37C883.68 121.12 896.384 134.283 896.384 150.416C896.384 166.55 882.907 180.499 866.278 180.499C853.039 180.499 841.807 171.957 837.77 160.087C831.697 162.702 824.999 164.158 817.96 164.158C808.393 164.158 799.458 161.484 791.853 156.841C786.181 173.294 772.065 185.818 754.678 189.22C758.752 196.41 761.093 204.707 761.093 213.554C761.093 237.665 743.803 257.728 720.937 262.066C720.937 262.237 720.952 262.408 720.952 262.578C720.952 287.774 703.632 308.929 680.238 314.804C677.332 330.522 663.557 342.429 646.988 342.429C646.215 342.429 645.457 342.392 644.698 342.34C645.457 344.457 645.873 346.737 645.873 349.114C645.873 360.189 636.886 369.17 625.802 369.17C616.421 369.17 608.542 362.737 606.341 354.046C604.148 354.7 601.822 355.057 599.413 355.057C593.771 355.057 588.59 353.118 584.479 349.887C576.109 358.317 564.758 363.784 552.136 364.594C553.548 367.335 554.671 370.247 555.436 373.307C562.528 374.941 567.821 381.27 567.821 388.854C567.821 397.671 560.662 404.824 551.838 404.824C551.407 404.824 550.984 404.794 550.56 404.757C547.126 410.298 542.405 414.963 536.815 418.321C539.967 423.074 541.803 428.779 541.803 434.907C541.803 448.686 532.526 460.296 519.874 463.861C520.365 464.872 520.759 465.941 521.056 467.048C524.676 470.435 526.936 475.248 526.936 480.589C526.936 490.847 518.618 499.159 508.352 499.159C500.748 499.159 494.213 494.591 491.337 488.054C483.457 495.943 472.976 501.224 461.298 502.539C460.272 510.42 455.722 517.187 449.278 521.213C455.767 525.625 460.034 533.06 460.034 541.498C460.034 547.166 458.101 552.38 454.868 556.533C458.837 558.761 461.521 562.995 461.521 567.868C461.521 575.043 455.7 580.867 448.512 580.867C441.324 580.867 435.503 575.043 435.503 567.868C435.503 567.236 435.563 566.62 435.652 566.003C435.6 566.011 435.555 566.011 435.503 566.011C434.782 566.011 434.069 565.974 433.37 565.914C430.552 570.846 425.245 574.181 419.149 574.181C413.054 574.181 407.858 570.921 405.026 566.07C404.996 586.282 391.043 603.217 372.236 607.838C372.288 608.499 372.318 609.167 372.318 609.836C372.318 624.602 360.335 636.576 345.557 636.576C336.183 636.576 327.94 631.756 323.16 624.469C319.205 626.957 314.522 628.406 309.504 628.406C301.365 628.406 294.109 624.61 289.411 618.697C288.49 618.994 287.561 619.277 286.624 619.537C287.241 621.891 287.575 624.365 287.575 626.92C287.575 642.92 274.596 655.889 258.584 655.889C250.98 655.889 244.059 652.955 238.886 648.171C235.882 649.315 232.627 649.947 229.222 649.947C225.817 649.947 222.264 649.256 219.149 648.008C219.164 648.528 219.187 649.048 219.187 649.575C219.187 671.711 201.406 689.686 179.335 690.043C179.633 691.484 179.789 692.984 179.789 694.514C179.789 703.205 174.808 710.73 167.538 714.407C168.252 716.434 168.638 718.611 168.638 720.884C168.638 731.758 159.822 740.568 148.939 740.568C144.36 740.568 140.153 739 136.808 736.386C132.459 745.173 123.554 751.301 113.177 751.68C113.95 753.648 114.373 755.788 114.373 758.024C114.373 767.665 106.553 775.479 96.9046 775.479C93.8494 775.479 90.98 774.692 88.4824 773.318C87.1963 775.078 85.1224 776.222 82.7808 776.222C82.3348 776.222 81.8962 776.177 81.4725 776.096C82.0672 777.381 82.4091 778.8 82.4091 780.307C82.4091 785.849 77.9193 790.335 72.3738 790.335C70.9689 790.335 69.6308 790.045 68.4192 789.526C66.3452 791.769 63.6468 793.433 60.5991 794.242C63.0224 796.218 64.5686 799.226 64.5686 802.591C64.5686 805.956 62.9778 809.031 60.5099 811.007C64.182 812.374 66.7987 815.902 66.7987 820.047C66.7987 825.38 62.4723 829.703 57.135 829.703C55.0536 829.703 53.1283 829.035 51.545 827.913C51.151 828.025 50.7496 828.106 50.3333 828.151C50.4002 828.537 50.4448 828.931 50.4448 829.332C50.4448 832.816 47.6126 835.646 44.1263 835.646C43.0187 835.646 41.978 835.356 41.0711 834.858C41.361 835.557 41.5246 836.329 41.5246 837.131C41.5246 840.414 38.8633 843.074 35.5777 843.074C35.3175 843.074 35.0648 843.051 34.8121 843.022C34.8269 843.155 34.8344 843.304 34.8344 843.445C34.8344 845.703 33.0057 847.53 30.7459 847.53C29.7498 847.53 28.8355 847.174 28.1218 846.58C28.1293 846.646 28.1441 846.713 28.1441 846.788C28.1441 848.838 26.479 850.502 24.4274 850.502C23.8476 850.502 23.3049 850.36 22.8217 850.123C22.9035 850.398 22.9555 850.695 22.9407 850.999C22.8663 852.433 21.6472 853.54 20.2125 853.473C20.0713 853.465 19.9375 853.436 19.8037 853.406C19.9449 853.644 20.0193 853.926 20.0044 854.223C19.9747 854.847 19.5584 855.36 19.0009 855.545C19.6179 856.05 20.0044 856.83 19.9672 857.685C19.8929 859.118 18.6738 860.225 17.2391 860.158C15.8044 860.084 14.6968 858.865 14.7637 857.432C14.8306 856.058 15.9531 855.003 17.306 854.973C17.135 854.713 17.0384 854.409 17.0533 854.082C17.0904 853.309 17.7223 852.708 18.4805 852.685C17.9973 852.188 17.7 851.497 17.7372 850.747C17.8115 849.313 19.0306 848.206 20.4653 848.273C20.6809 848.288 20.889 848.333 21.0897 848.392C20.8518 847.902 20.7106 847.367 20.7106 846.788C20.7106 844.738 22.3757 843.074 24.4274 843.074C25.2748 843.074 26.0553 843.371 26.6797 843.854C26.6649 843.72 26.6574 843.579 26.6574 843.445C26.6574 841.41 28.1441 839.731 30.0917 839.419C29.7944 838.713 29.6309 837.941 29.6309 837.131C29.6309 834.918 30.85 832.987 32.6489 831.969C32.1508 831.211 31.8609 830.305 31.8609 829.332C31.8609 826.665 34.0241 824.504 36.6927 824.504C37.6517 824.504 38.5437 824.786 39.2945 825.269C39.9412 824.504 40.7589 823.895 41.6955 823.501C41.1157 822.35 40.7812 821.057 40.7812 819.676C40.7812 815.583 43.6654 812.166 47.5086 811.334C44.7879 809.38 43.0113 806.194 43.0113 802.591C43.0113 798.394 45.4197 794.762 48.9284 792.987C43.6506 790.276 40.0378 784.786 40.0378 778.45C40.0378 769.425 47.3599 762.109 56.3917 762.109C57.7297 762.109 59.0232 762.272 60.2646 762.577C60.1754 761.938 60.1085 761.284 60.1085 760.623C60.1085 753.24 66.0999 747.253 73.4889 747.253H73.526C71.6528 745.054 70.5154 742.202 70.5154 739.082C70.5154 732.107 76.1724 726.455 83.1525 726.455C83.6951 726.455 84.2229 726.499 84.7433 726.566C84.6838 725.794 84.6392 725.014 84.6392 724.226C84.6392 709.363 96.4511 697.263 111.207 696.765C111.764 694.195 112.716 691.781 114.009 689.582C112.812 687.02 112.143 684.16 112.143 681.144C112.143 670.069 121.131 661.089 132.214 661.089C133.21 661.089 134.184 661.163 135.135 661.304C127.278 657.746 121.807 649.843 121.807 640.662C121.807 638.188 122.208 635.811 122.944 633.583C120.818 630.396 119.577 626.578 119.577 622.463C119.577 611.388 128.564 602.408 139.648 602.408C145.624 602.408 150.991 605.022 154.663 609.167C154.084 606.263 153.771 603.254 153.771 600.179C153.771 579.173 168.081 561.502 187.497 556.377C186.828 552.254 186.479 548.035 186.479 543.727C186.479 527.705 191.274 512.797 199.503 500.362C189.363 493.001 182.762 481.072 182.762 467.59C182.762 456.53 187.207 446.51 194.396 439.208C189.809 429.968 187.222 419.554 187.222 408.538C187.222 372.743 214.474 343.298 249.382 339.807C248.765 336.219 248.296 332.58 247.977 328.903C230.069 323.807 216.957 307.354 216.957 287.834C216.957 273.208 224.323 260.298 235.54 252.603V252.551C235.54 235.741 240.164 220.009 248.2 206.557C247.062 203.155 246.17 199.641 245.546 196.039C235.407 198.371 224.338 195.593 216.436 187.705C204.245 175.523 204.245 155.764 216.436 143.583C217.551 142.468 218.733 141.458 219.96 140.552C216.622 134.298 214.726 127.167 214.726 119.59C214.726 117.184 214.92 114.821 215.291 112.519C212.749 113.247 210.066 113.648 207.293 113.648C191.281 113.648 178.302 100.679 178.302 84.6788C178.302 73.5962 184.531 63.977 193.675 59.1043C191.913 54.0904 190.939 48.6977 190.939 43.0822C190.939 24.2672 201.71 7.9702 217.425 0H926.988C929.738 4.67962 931.322 10.1392 931.322 15.9701Z" fill="white"/>
</g>
</g>
<defs>
<filter id="filter0_d_412_285" x="0" y="0" width="1006" height="878" filterUnits="userSpaceOnUse" color-interpolation-filters="sRGB">
<feFlood flood-opacity="0" result="BackgroundImageFix"/>
<feColorMatrix in="SourceAlpha" type="matrix" values="0 0 0 0 0 0 0 0 0 0 0 0 0 0 0 0 0 0 127 0" result="hardAlpha"/>
<feOffset dy="4"/>
<feGaussianBlur stdDeviation="2"/>
<feComposite in2="hardAlpha" operator="out"/>
<feColorMatrix type="matrix" values="0 0 0 0 0 0 0 0 0 0 0 0 0 0 0 0 0 0 0.25 0"/>
<feBlend mode="normal" in2="BackgroundImageFix" result="effect1_dropShadow_412_285"/>
<feBlend mode="normal" in="SourceGraphic" in2="effect1_dropShadow_412_285" result="shape"/>
</filter>
<filter id="filter1_i_412_285" x="4" y="0" width="998" height="874" filterUnits="userSpaceOnUse" color-interpolation-filters="sRGB">
<feFlood flood-opacity="0" result="BackgroundImageFix"/>
<feBlend mode="normal" in="SourceGraphic" in2="BackgroundImageFix" result="shape"/>
<feColorMatrix in="SourceAlpha" type="matrix" values="0 0 0 0 0 0 0 0 0 0 0 0 0 0 0 0 0 0 127 0" result="hardAlpha"/>
<feOffset dy="4"/>
<feGaussianBlur stdDeviation="2.5"/>
<feComposite in2="hardAlpha" operator="arithmetic" k2="-1" k3="1"/>
<feColorMatrix type="matrix" values="0 0 0 0 0 0 0 0 0 0 0 0 0 0 0 0 0 0 1 0"/>
<feBlend mode="normal" in2="shape" result="effect1_innerShadow_412_285"/>
</filter>
<filter id="filter2_i_412_285" x="8.80945" y="0" width="964.014" height="869.974" filterUnits="userSpaceOnUse" color-interpolation-filters="sRGB">
<feFlood flood-opacity="0" result="BackgroundImageFix"/>
<feBlend mode="normal" in="SourceGraphic" in2="BackgroundImageFix" result="shape"/>
<feColorMatrix in="SourceAlpha" type="matrix" values="0 0 0 0 0 0 0 0 0 0 0 0 0 0 0 0 0 0 127 0" result="hardAlpha"/>
<feOffset dy="4"/>
<feGaussianBlur stdDeviation="2.5"/>
<feComposite in2="hardAlpha" operator="arithmetic" k2="-1" k3="1"/>
<feColorMatrix type="matrix" values="0 0 0 0 0 0 0 0 0 0 0 0 0 0 0 0 0 0 1 0"/>
<feBlend mode="normal" in2="shape" result="effect1_innerShadow_412_285"/>
</filter>
<filter id="filter3_i_412_285" x="13.2771" y="0" width="940.345" height="865.643" filterUnits="userSpaceOnUse" color-interpolation-filters="sRGB">
<feFlood flood-opacity="0" result="BackgroundImageFix"/>
<feBlend mode="normal" in="SourceGraphic" in2="BackgroundImageFix" result="shape"/>
<feColorMatrix in="SourceAlpha" type="matrix" values="0 0 0 0 0 0 0 0 0 0 0 0 0 0 0 0 0 0 127 0" result="hardAlpha"/>
<feOffset dy="4"/>
<feGaussianBlur stdDeviation="2.5"/>
<feComposite in2="hardAlpha" operator="arithmetic" k2="-1" k3="1"/>
<feColorMatrix type="matrix" values="0 0 0 0 0 0 0 0 0 0 0 0 0 0 0 0 0 0 1 0"/>
<feBlend mode="normal" in2="shape" result="effect1_innerShadow_412_285"/>
</filter>
<filter id="filter4_i_412_285" x="14.7609" y="0" width="916.561" height="864.161" filterUnits="userSpaceOnUse" color-interpolation-filters="sRGB">
<feFlood flood-opacity="0" result="BackgroundImageFix"/>
<feBlend mode="normal" in="SourceGraphic" in2="BackgroundImageFix" result="shape"/>
<feColorMatrix in="SourceAlpha" type="matrix" values="0 0 0 0 0 0 0 0 0 0 0 0 0 0 0 0 0 0 127 0" result="hardAlpha"/>
<feOffset dy="4"/>
<feGaussianBlur stdDeviation="2.5"/>
<feComposite in2="hardAlpha" operator="arithmetic" k2="-1" k3="1"/>
<feColorMatrix type="matrix" values="0 0 0 0 0 0 0 0 0 0 0 0 0 0 0 0 0 0 1 0"/>
<feBlend mode="normal" in2="shape" result="effect1_innerShadow_412_285"/>
</filter>
</defs>
</svg>
