<svg width="14" height="14" viewBox="0 0 14 14" fill="none" xmlns="http://www.w3.org/2000/svg">
<path d="M10.3899 13.1259C10.3378 13.1534 10.3422 13.1622 10.3921 13.1368C10.4074 13.1305 10.4215 13.1215 10.4336 13.1101C10.4336 13.1009 10.4336 13.1009 10.3899 13.1259ZM10.4949 13.069C10.4699 13.0895 10.4699 13.0895 10.4997 13.076C10.5107 13.0708 10.5207 13.0639 10.5294 13.0554C10.5294 13.0436 10.5224 13.0462 10.4949 13.069ZM10.5631 13.0279C10.5382 13.0484 10.5382 13.0484 10.5679 13.0349C10.579 13.0296 10.589 13.0225 10.5977 13.0139C10.5977 13.0029 10.5907 13.0051 10.5631 13.0279ZM10.6322 12.9872C10.6073 13.0077 10.6073 13.0077 10.6362 12.9937C10.6524 12.985 10.6659 12.9758 10.6659 12.9732C10.6659 12.9622 10.6589 12.9644 10.6322 12.9872ZM10.7254 12.9255C10.6777 12.9574 10.6611 12.978 10.7049 12.9552C10.7342 12.9373 10.784 12.8979 10.7753 12.8979C10.7565 12.9049 10.7407 12.9167 10.725 12.9255H10.7254ZM6.54173 0.0032157C6.5098 0.00540325 6.41399 0.0141534 6.32999 0.0211536C4.3403 0.201407 2.4788 1.27243 1.2989 2.92227C0.646852 3.82715 0.223012 4.87615 0.0634355 5.98002C0.00699978 6.36503 0 6.47878 0 7.00073C0 7.52224 0.00699978 7.63425 0.0634355 8.01925C0.444486 10.6491 2.31518 12.8568 4.85085 13.6749C5.30715 13.8206 5.78532 13.9212 6.32999 13.9829C6.54173 14.0057 7.45739 14.0057 7.66914 13.9829C8.61061 13.8779 9.40552 13.6456 10.1921 13.2444C10.3129 13.1832 10.3356 13.167 10.3194 13.1534C9.9357 12.6462 9.55523 12.1365 9.17803 11.6243L8.05937 10.1136L6.6581 8.03763C6.192 7.34254 5.7211 6.65068 5.24546 5.96209C5.24065 5.96209 5.23452 6.88479 5.2319 8.01007C5.22709 9.98104 5.22709 10.0611 5.20215 10.1066C5.17824 10.1616 5.13539 10.2061 5.0814 10.2322C5.03809 10.2527 4.99916 10.2571 4.79223 10.2571H4.55555L4.49386 10.2186C4.45522 10.1938 4.42383 10.1593 4.40286 10.1184L4.37311 10.0567L4.3753 7.31311L4.38011 4.5695L4.42342 4.51481C4.45109 4.48118 4.48514 4.45338 4.52361 4.43299C4.58092 4.40543 4.60367 4.40105 4.84035 4.40105C5.11815 4.40105 5.16409 4.41199 5.23715 4.49206C5.8048 5.33639 6.36756 6.18401 6.92541 7.03486C7.83494 8.41389 9.07653 10.2956 9.68682 11.2188L10.7967 12.8984L10.8514 12.862C11.3848 12.5076 11.8682 12.083 12.2886 11.5998C13.1703 10.5905 13.7425 9.34845 13.9366 8.02232C13.993 7.63731 14 7.52312 14 7.00161C14 6.47966 13.993 6.36809 13.9366 5.98309C13.5555 3.35322 11.6848 1.14555 9.14915 0.326972C8.67526 0.176872 8.18749 0.0747124 7.6932 0.0220286C7.56064 0.00846581 6.65592 -0.00772202 6.54217 0.00409072L6.54173 0.0032157ZM9.40596 4.23699C9.4385 4.25297 9.46753 4.27529 9.49135 4.30264C9.51516 4.32998 9.53328 4.36181 9.54464 4.39624C9.55645 4.43299 9.55864 5.19382 9.55645 6.90754L9.55164 9.36809L9.11897 8.70308L8.68367 8.03763V6.25128C8.68367 5.09319 8.68848 4.44393 8.6946 4.41199C8.71602 4.33876 8.76514 4.27676 8.83154 4.23918C8.88579 4.21161 8.90679 4.20943 9.12334 4.20943C9.3259 4.20943 9.36046 4.21161 9.40596 4.23699Z" fill="white"/>
</svg>
