<svg width="18" height="12" viewBox="0 0 18 12" fill="none" xmlns="http://www.w3.org/2000/svg">
<path d="M0.680781 10.6498H17.3263C17.4972 10.6501 17.6616 10.7152 17.7864 10.832C17.9111 10.9489 17.9869 11.1087 17.9985 11.2792C18.01 11.4498 17.9564 11.6184 17.8485 11.7509C17.7406 11.8835 17.5865 11.9702 17.4172 11.9935L17.3263 11.9998H0.681681C0.509489 12.0016 0.343141 11.9374 0.216702 11.8205C0.0902623 11.7035 0.0132978 11.5427 0.00156836 11.3708C-0.010161 11.199 0.0442321 11.0291 0.15361 10.8961C0.262987 10.7631 0.419073 10.6769 0.589906 10.6552L0.680781 10.6498ZM14.627 0.299805C15.4962 0.299805 16.2016 1.0054 16.2016 1.8748V8.6248C16.2016 9.04252 16.0357 9.44313 15.7404 9.7385C15.4451 10.0339 15.0446 10.1998 14.627 10.1998H3.38005C2.96245 10.1998 2.56195 10.0339 2.26666 9.7385C1.97137 9.44313 1.80548 9.04252 1.80548 8.6248V1.8748C1.80548 1.0054 2.51089 0.299805 3.38005 0.299805H14.627Z" fill="white"/>
</svg>
