<svg width="18" height="15" viewBox="0 0 18 15" fill="none" xmlns="http://www.w3.org/2000/svg">
<path d="M4.91224 5.02522L2.2311 7.25926L4.91224 9.49331C5.00116 9.56618 5.07477 9.65593 5.12883 9.75739C5.18289 9.85885 5.21633 9.97001 5.22722 10.0845C5.23811 10.1989 5.22624 10.3144 5.19228 10.4242C5.15833 10.534 5.10296 10.6361 5.02938 10.7244C4.9558 10.8127 4.86547 10.8856 4.76358 10.9389C4.66169 10.9921 4.55027 11.0247 4.43574 11.0346C4.32121 11.0446 4.20584 11.0318 4.09628 10.997C3.98672 10.9622 3.88514 10.906 3.79739 10.8317L0.313506 7.92846C0.215385 7.84672 0.136439 7.74441 0.0822613 7.62876C0.0280836 7.51311 0 7.38697 0 7.25926C0 7.13156 0.0280836 7.00541 0.0822613 6.88977C0.136439 6.77412 0.215385 6.67181 0.313506 6.59007L3.79739 3.68683C3.97513 3.54117 4.20322 3.47166 4.43197 3.49342C4.66073 3.51519 4.87161 3.62648 5.01868 3.80304C5.16576 3.9796 5.23709 4.20713 5.21715 4.43605C5.19722 4.66498 5.08762 4.87674 4.91224 5.02522ZM17.6865 6.59007L14.2026 3.68683C14.1149 3.61254 14.0133 3.55637 13.9037 3.52154C13.7942 3.4867 13.6788 3.47391 13.5643 3.48388C13.4497 3.49386 13.3383 3.52641 13.2364 3.57965C13.1345 3.6329 13.0442 3.7058 12.9706 3.79413C12.897 3.88246 12.8417 3.98449 12.8077 4.09432C12.7738 4.20416 12.7619 4.31963 12.7728 4.43407C12.7837 4.54852 12.8171 4.65968 12.8712 4.76114C12.9252 4.8626 12.9988 4.95235 13.0878 5.02522L15.7689 7.25926L13.0878 9.49331C12.9988 9.56618 12.9252 9.65593 12.8712 9.75739C12.8171 9.85885 12.7837 9.97001 12.7728 10.0845C12.7619 10.1989 12.7738 10.3144 12.8077 10.4242C12.8417 10.534 12.897 10.6361 12.9706 10.7244C13.0442 10.8127 13.1345 10.8856 13.2364 10.9389C13.3383 10.9921 13.4497 11.0247 13.5643 11.0346C13.6788 11.0446 13.7942 11.0318 13.9037 10.997C14.0133 10.9622 14.1149 10.906 14.2026 10.8317L17.6865 7.92846C17.7846 7.84672 17.8636 7.74441 17.9177 7.62876C17.9719 7.51311 18 7.38697 18 7.25926C18 7.13156 17.9719 7.00541 17.9177 6.88977C17.8636 6.77412 17.7846 6.67181 17.6865 6.59007ZM11.6202 0.0534225C11.5127 0.0143235 11.3985 -0.00321148 11.2842 0.00181904C11.1699 0.00684957 11.0577 0.0343472 10.9541 0.082741C10.8504 0.131135 10.7573 0.199477 10.68 0.283863C10.6028 0.36825 10.5429 0.467028 10.5039 0.574554L5.85869 13.3488C5.77996 13.5659 5.79062 13.8053 5.88834 14.0145C5.98606 14.2237 6.16284 14.3855 6.37983 14.4644C6.47509 14.4996 6.57586 14.5175 6.67741 14.5174C6.85623 14.5174 7.03073 14.4624 7.1772 14.3598C7.32368 14.2572 7.43502 14.112 7.49612 13.944L12.1413 1.16972C12.1804 1.0622 12.1979 0.948042 12.1929 0.83375C12.1879 0.719458 12.1604 0.607277 12.112 0.503615C12.0636 0.399952 11.9953 0.306839 11.9109 0.229594C11.8265 0.152349 11.7277 0.0924853 11.6202 0.0534225Z" fill="white"/>
</svg>
