<svg width="18" height="15" viewBox="0 0 18 15" fill="none" xmlns="http://www.w3.org/2000/svg">
<path d="M1.8 5.99961V13.1996H16.2V5.99961L9 8.69961L1.8 5.99961ZM1.8 2.39961V4.19961L9 6.89961L16.2 4.19961V2.39961H1.8ZM1.8 0.599609H16.2C16.6774 0.599609 17.1352 0.789252 17.4728 1.12682C17.8104 1.46438 18 1.92222 18 2.39961V13.1996C18 13.677 17.8104 14.1348 17.4728 14.4724C17.1352 14.81 16.6774 14.9996 16.2 14.9996H1.8C1.32261 14.9996 0.864773 14.81 0.527208 14.4724C0.189642 14.1348 0 13.677 0 13.1996V2.39961C0 1.92222 0.189642 1.46438 0.527208 1.12682C0.864773 0.789252 1.32261 0.599609 1.8 0.599609Z" fill="white"/>
</svg>
