<svg width="18" height="19" viewBox="0 0 18 19" fill="none" xmlns="http://www.w3.org/2000/svg">
<path d="M5.22 0.866211H12.78C15.66 0.866211 18 3.20621 18 6.08621V13.6462C18 15.0306 17.45 16.3584 16.4711 17.3373C15.4922 18.3162 14.1644 18.8662 12.78 18.8662H5.22C2.34 18.8662 0 16.5262 0 13.6462V6.08621C0 4.70178 0.549963 3.37405 1.5289 2.39511C2.50784 1.41617 3.83557 0.866211 5.22 0.866211ZM5.04 2.66621C4.1807 2.66621 3.35659 3.00757 2.74897 3.61519C2.14136 4.2228 1.8 5.04691 1.8 5.90621V13.8262C1.8 15.6172 3.249 17.0662 5.04 17.0662H12.96C13.8193 17.0662 14.6434 16.7249 15.251 16.1172C15.8586 15.5096 16.2 14.6855 16.2 13.8262V5.90621C16.2 4.11521 14.751 2.66621 12.96 2.66621H5.04ZM13.725 4.01621C14.0234 4.01621 14.3095 4.13474 14.5205 4.34572C14.7315 4.55669 14.85 4.84284 14.85 5.14121C14.85 5.43958 14.7315 5.72573 14.5205 5.93671C14.3095 6.14768 14.0234 6.26621 13.725 6.26621C13.4266 6.26621 13.1405 6.14768 12.9295 5.93671C12.7185 5.72573 12.6 5.43958 12.6 5.14121C12.6 4.84284 12.7185 4.55669 12.9295 4.34572C13.1405 4.13474 13.4266 4.01621 13.725 4.01621ZM9 5.36621C10.1935 5.36621 11.3381 5.84032 12.182 6.68423C13.0259 7.52814 13.5 8.67274 13.5 9.86621C13.5 11.0597 13.0259 12.2043 12.182 13.0482C11.3381 13.8921 10.1935 14.3662 9 14.3662C7.80653 14.3662 6.66193 13.8921 5.81802 13.0482C4.97411 12.2043 4.5 11.0597 4.5 9.86621C4.5 8.67274 4.97411 7.52814 5.81802 6.68423C6.66193 5.84032 7.80653 5.36621 9 5.36621ZM9 7.16621C8.28392 7.16621 7.59716 7.45067 7.09081 7.95702C6.58446 8.46337 6.3 9.15013 6.3 9.86621C6.3 10.5823 6.58446 11.2691 7.09081 11.7754C7.59716 12.2817 8.28392 12.5662 9 12.5662C9.71608 12.5662 10.4028 12.2817 10.9092 11.7754C11.4155 11.2691 11.7 10.5823 11.7 9.86621C11.7 9.15013 11.4155 8.46337 10.9092 7.95702C10.4028 7.45067 9.71608 7.16621 9 7.16621Z" fill="white"/>
</svg>
