<svg width="18" height="19" viewBox="0 0 18 19" fill="none" xmlns="http://www.w3.org/2000/svg">
<path d="M16 0.733398C16.5304 0.733398 17.0391 0.944112 17.4142 1.31918C17.7893 1.69426 18 2.20297 18 2.7334V16.7334C18 17.2638 17.7893 17.7725 17.4142 18.1476C17.0391 18.5227 16.5304 18.7334 16 18.7334H2C1.46957 18.7334 0.960859 18.5227 0.585786 18.1476C0.210714 17.7725 0 17.2638 0 16.7334V2.7334C0 2.20297 0.210714 1.69426 0.585786 1.31918C0.960859 0.944112 1.46957 0.733398 2 0.733398H16ZM15.5 16.2334V10.9334C15.5 10.0688 15.1565 9.2396 14.5452 8.62823C13.9338 8.01686 13.1046 7.6734 12.24 7.6734C11.39 7.6734 10.4 8.1934 9.92 8.9734V7.8634H7.13V16.2334H9.92V11.3034C9.92 10.5334 10.54 9.9034 11.31 9.9034C11.6813 9.9034 12.0374 10.0509 12.2999 10.3134C12.5625 10.576 12.71 10.9321 12.71 11.3034V16.2334H15.5ZM3.88 6.2934C4.32556 6.2934 4.75288 6.1164 5.06794 5.80134C5.383 5.48628 5.56 5.05896 5.56 4.6134C5.56 3.6834 4.81 2.9234 3.88 2.9234C3.43178 2.9234 3.00193 3.10145 2.68499 3.41839C2.36805 3.73532 2.19 4.16518 2.19 4.6134C2.19 5.5434 2.95 6.2934 3.88 6.2934ZM5.27 16.2334V7.8634H2.5V16.2334H5.27Z" fill="white"/>
</svg>
