<svg width="18" height="18" viewBox="0 0 18 18" fill="none" xmlns="http://www.w3.org/2000/svg">
<path d="M15.7952 2.77301C14.8982 1.87699 13.8323 1.17024 12.6601 0.694226C11.4879 0.218213 10.233 -0.0174696 8.96897 0.00100819C6.59619 -0.00495919 4.31824 0.937529 2.63623 2.62114C0.954232 4.30475 0.00595995 6.59156 2.79978e-05 8.97851C-0.00590395 11.3655 0.93099 13.657 2.6046 15.3491C4.27822 17.0411 6.55146 17.995 8.92424 18.001C9.43553 18.0098 9.93524 17.8475 10.3449 17.5396C10.7546 17.2317 11.051 16.7957 11.1877 16.3C11.2749 15.942 11.274 15.5681 11.1851 15.2105C11.0962 14.853 10.9221 14.5226 10.6778 14.248C10.6213 14.1833 10.5844 14.1037 10.5716 14.0186C10.5587 13.9334 10.5704 13.8464 10.6052 13.7678C10.6401 13.6891 10.6966 13.6222 10.7682 13.5749C10.8397 13.5276 10.9232 13.502 11.0088 13.501H12.485C13.8743 13.5075 15.2147 12.9851 16.237 12.0385C17.2592 11.092 17.8876 9.79142 17.9961 8.39801C18.0293 7.35906 17.8513 6.32422 17.4728 5.35696C17.0944 4.3897 16.5235 3.51041 15.7952 2.77301ZM12.5208 11.701H11.0446C10.6135 11.6986 10.1909 11.822 9.82816 12.0563C9.46541 12.2907 9.17805 12.6259 9.00093 13.0213C8.82382 13.4167 8.76457 13.8553 8.83035 14.2839C8.89614 14.7126 9.08415 15.1128 9.37157 15.436C9.42753 15.4928 9.46709 15.5639 9.486 15.6415C9.50491 15.7192 9.50246 15.8006 9.47892 15.877C9.43419 16.066 9.22842 16.183 8.95108 16.201C7.93503 16.1879 6.93341 15.9573 6.01283 15.5246C5.09225 15.0918 4.27382 14.4669 3.61197 13.6912C2.95013 12.9156 2.46005 12.0071 2.17432 11.0262C1.8886 10.0452 1.81378 9.0143 1.95485 8.00201C2.20998 6.30096 3.05489 4.74548 4.34013 3.61067C5.62538 2.47586 7.26816 1.83485 8.97792 1.80101H9.04949C10.0612 1.78768 11.0653 1.97831 12.0026 2.36166C12.9399 2.745 13.7914 3.31329 14.5069 4.03301C15.0652 4.59497 15.5038 5.26543 15.7961 6.00351C16.0883 6.74159 16.228 7.53182 16.2068 8.32601C16.1141 9.24677 15.6866 10.1006 15.0062 10.7236C14.3259 11.3465 13.4407 11.6946 12.5208 11.701Z" fill="white"/>
<path d="M9.04951 5.40117C9.79066 5.40117 10.3915 4.79676 10.3915 4.05117C10.3915 3.30559 9.79066 2.70117 9.04951 2.70117C8.30835 2.70117 7.70752 3.30559 7.70752 4.05117C7.70752 4.79676 8.30835 5.40117 9.04951 5.40117Z" fill="white"/>
<path d="M11.9571 4.68102C11.7273 4.81455 11.5421 5.0136 11.4247 5.25303C11.3074 5.49245 11.2632 5.76149 11.2978 6.02615C11.3325 6.29081 11.4443 6.5392 11.6192 6.73993C11.7942 6.94066 12.0243 7.08472 12.2806 7.15389C12.5369 7.22306 12.8078 7.21424 13.0591 7.12856C13.3105 7.04287 13.5309 6.88415 13.6925 6.67247C13.8542 6.46079 13.9499 6.20564 13.9674 5.93929C13.985 5.67293 13.9236 5.40732 13.7911 5.17602C13.7031 5.0223 13.5858 4.88755 13.4459 4.77946C13.3061 4.67138 13.1464 4.59208 12.9761 4.54611C12.8058 4.50014 12.6281 4.48839 12.4533 4.51154C12.2784 4.53469 12.1098 4.59228 11.9571 4.68102ZM6.14182 4.68102C5.9119 4.54776 5.64787 4.48605 5.38309 4.50371C5.11831 4.52136 4.86469 4.61758 4.65426 4.78021C4.44384 4.94284 4.28606 5.16458 4.20088 5.41739C4.1157 5.67021 4.10694 5.94275 4.1757 6.20057C4.24446 6.4584 4.38766 6.68993 4.5872 6.8659C4.78673 7.04187 5.03365 7.15438 5.29674 7.18921C5.55983 7.22404 5.82727 7.17963 6.06528 7.06159C6.30328 6.94354 6.50115 6.75717 6.63388 6.52602C6.7221 6.3724 6.77935 6.2028 6.80236 6.0269C6.82537 5.85101 6.81369 5.67228 6.76799 5.50093C6.7223 5.32958 6.64347 5.16897 6.53603 5.02828C6.42858 4.8876 6.29463 4.76959 6.14182 4.68102ZM3.82466 8.33502C3.60454 8.48454 3.43348 8.69639 3.33313 8.94376C3.23277 9.19113 3.20764 9.4629 3.26092 9.72465C3.31419 9.9864 3.44347 10.2264 3.6324 10.4141C3.82132 10.6019 4.06139 10.7291 4.3222 10.7796C4.58301 10.83 4.85284 10.8015 5.09753 10.6976C5.34221 10.5937 5.55075 10.4191 5.69673 10.1959C5.84271 9.97267 5.91957 9.71091 5.91758 9.44374C5.91559 9.17657 5.83484 8.916 5.68555 8.69502C5.58747 8.54774 5.46134 8.42148 5.31445 8.32354C5.16756 8.22561 5.00282 8.15794 4.82976 8.12446C4.65671 8.09099 4.47878 8.09236 4.30625 8.1285C4.13373 8.16464 3.97004 8.23484 3.82466 8.33502Z" fill="white"/>
</svg>
