<svg width="16" height="20" viewBox="0 0 16 20" fill="none" xmlns="http://www.w3.org/2000/svg">
<path d="M3.84615 5.30424H6.61539M3.84615 10.1504H12.1538M3.84615 12.9196H12.1538M3.84615 15.6889H6.61539M2.46154 19.1504H13.5385C13.9057 19.1504 14.2579 19.0045 14.5175 18.7448C14.7772 18.4852 14.9231 18.133 14.9231 17.7658V2.53501C14.9231 2.16778 14.7772 1.8156 14.5175 1.55594C14.2579 1.29627 13.9057 1.15039 13.5385 1.15039H2.46154C2.09432 1.15039 1.74213 1.29627 1.48247 1.55594C1.2228 1.8156 1.07692 2.16778 1.07692 2.53501V17.7658C1.07692 18.133 1.2228 18.4852 1.48247 18.7448C1.74213 19.0045 2.09432 19.1504 2.46154 19.1504Z" stroke="white" stroke-width="1.5" stroke-linecap="round" stroke-linejoin="round"/>
<path d="M12.1538 5.65032C12.345 5.65032 12.5 5.49534 12.5 5.30416C12.5 5.11299 12.345 4.95801 12.1538 4.95801C11.9627 4.95801 11.8077 5.11299 11.8077 5.30416C11.8077 5.49534 11.9627 5.65032 12.1538 5.65032Z" fill="white" stroke="white" stroke-width="0.75"/>
</svg>
