<svg width="18" height="18" viewBox="0 0 18 18" fill="none" xmlns="http://www.w3.org/2000/svg">
<path d="M10.9286 10.2857C11.4401 10.2857 11.9306 10.4889 12.2923 10.8506C12.654 11.2123 12.8571 11.7028 12.8571 12.2143V12.8571C12.8571 15.3913 10.4657 18 6.42857 18C2.39143 18 0 15.3913 0 12.8571V12.2143C0 11.7028 0.203188 11.2123 0.564866 10.8506C0.926543 10.4889 1.41708 10.2857 1.92857 10.2857H10.9286ZM10.9286 11.5714H1.92857C1.75808 11.5714 1.59456 11.6392 1.474 11.7597C1.35344 11.8803 1.28571 12.0438 1.28571 12.2143V12.8571C1.28571 14.706 3.12686 16.7143 6.42857 16.7143C9.73029 16.7143 11.5714 14.706 11.5714 12.8571V12.2143C11.5714 12.0438 11.5037 11.8803 11.3831 11.7597C11.2626 11.6392 11.0991 11.5714 10.9286 11.5714ZM15.4286 7.71429C15.6843 7.71429 15.9296 7.81588 16.1104 7.99672C16.2913 8.17756 16.3929 8.42283 16.3929 8.67857C16.3929 8.93432 16.2913 9.17959 16.1104 9.36042C15.9296 9.54126 15.6843 9.64286 15.4286 9.64286C15.1728 9.64286 14.9276 9.54126 14.7467 9.36042C14.5659 9.17959 14.4643 8.93432 14.4643 8.67857C14.4643 8.42283 14.5659 8.17756 14.7467 7.99672C14.9276 7.81588 15.1728 7.71429 15.4286 7.71429ZM6.42857 1.92857C7.3663 1.92857 8.26562 2.30108 8.9287 2.96416C9.59177 3.62723 9.96429 4.52656 9.96429 5.46429C9.96429 6.40202 9.59177 7.30134 8.9287 7.96441C8.26562 8.62749 7.3663 9 6.42857 9C5.49084 9 4.59152 8.62749 3.92844 7.96441C3.26537 7.30134 2.89286 6.40202 2.89286 5.46429C2.89286 4.52656 3.26537 3.62723 3.92844 2.96416C4.59152 2.30108 5.49084 1.92857 6.42857 1.92857ZM6.42857 3.21429C5.83183 3.21429 5.25954 3.45134 4.83758 3.8733C4.41562 4.29525 4.17857 4.86755 4.17857 5.46429C4.17857 6.06102 4.41562 6.63332 4.83758 7.05528C5.25954 7.47723 5.83183 7.71429 6.42857 7.71429C7.02531 7.71429 7.5976 7.47723 8.01956 7.05528C8.44152 6.63332 8.67857 6.06102 8.67857 5.46429C8.67857 4.86755 8.44152 4.29525 8.01956 3.8733C7.5976 3.45134 7.02531 3.21429 6.42857 3.21429ZM15.4286 0C16.1106 0 16.7646 0.270918 17.2468 0.753154C17.7291 1.23539 18 1.88944 18 2.57143C18 3.51 17.7274 4.03714 17.0306 4.76743L16.6911 5.11457C16.2064 5.61986 16.0714 5.89243 16.0714 6.42857C16.0714 6.59907 16.0037 6.76258 15.8831 6.88314C15.7626 7.0037 15.5991 7.07143 15.4286 7.07143C15.2581 7.07143 15.0946 7.0037 14.974 6.88314C14.8534 6.76258 14.7857 6.59907 14.7857 6.42857C14.7857 5.49 15.0583 4.96286 15.7551 4.23257L16.0946 3.88543C16.5793 3.38143 16.7143 3.10886 16.7143 2.57143C16.7143 2.23044 16.5788 1.90341 16.3377 1.66229C16.0966 1.42117 15.7696 1.28571 15.4286 1.28571C15.0876 1.28571 14.7606 1.42117 14.5194 1.66229C14.2783 1.90341 14.1429 2.23044 14.1429 2.57143C14.1429 2.74192 14.0751 2.90544 13.9546 3.026C13.834 3.14656 13.6705 3.21429 13.5 3.21429C13.3295 3.21429 13.166 3.14656 13.0454 3.026C12.9249 2.90544 12.8571 2.74192 12.8571 2.57143C12.8571 1.88944 13.1281 1.23539 13.6103 0.753154C14.0925 0.270918 14.7466 0 15.4286 0Z" fill="white"/>
</svg>
